<svg xmlns="http://www.w3.org/2000/svg" xmlns:xlink="http://www.w3.org/1999/xlink" width="1100" height="564.46"><rect width="1100" height="564.46" rx="0" ry="0" class="a"/><svg height="564.46" viewBox="0 0 110 56.446" width="1100" xmlns="http://www.w3.org/2000/svg" xmlns:xlink="http://www.w3.org/1999/xlink"><style>@keyframes g{0%{transform:translateX(0)}.2%{transform:translateX(-110px)}10.3%{transform:translateX(-220px)}12%{transform:translateX(-330px)}15.8%{transform:translateX(-440px)}15.9%{transform:translateX(-660px)}28.2%{transform:translateX(-770px)}30.3%{transform:translateX(-880px)}32.4%{transform:translateX(-990px)}33.5%{transform:translateX(-1100px)}35.7%{transform:translateX(-1210px)}36.5%{transform:translateX(-1320px)}37.6%{transform:translateX(-1430px)}39.1%{transform:translateX(-1540px)}41.6%{transform:translateX(-1650px)}42.9%{transform:translateX(-1760px)}44.6%{transform:translateX(-1870px)}45.9%{transform:translateX(-1980px)}48.4%{transform:translateX(-2090px)}51.6%{transform:translateX(-2200px)}53.8%{transform:translateX(-2310px)}56.3%{transform:translateX(-2420px)}58.1%{transform:translateX(-2530px)}59.3%{transform:translateX(-2640px)}60.2%{transform:translateX(-2750px)}63.1%{transform:translateX(-2860px)}68.6%{transform:translateX(-2970px)}69%{transform:translateX(-3080px)}70.5%{transform:translateX(-3300px)}72%{transform:translateX(-3630px)}73.6%{transform:translateX(-3960px)}75.2%{transform:translateX(-4180px)}76.7%{transform:translateX(-4510px)}78.3%{transform:translateX(-4730px)}79.8%{transform:translateX(-4950px)}79.9%{transform:translateX(-5060px)}81.4%{transform:translateX(-5390px)}83%{transform:translateX(-5720px)}84.5%{transform:translateX(-5940px)}86%{transform:translateX(-6270px)}87.2%{transform:translateX(-6490px)}87.3%{transform:translateX(-6600px)}to{transform:translateX(-6710px)}}.a{fill:#122239}.c{fill:#b9c0cb}.d{fill:#b9bfca}</style><g font-size="1.67" font-family="Monaco,Consolas,Menlo,'Bitstream Vera Sans Mono','Powerline Symbols',monospace"><defs><symbol id="1"><text y="1.67" class="c">bash-3.2$</text></symbol><symbol id="2"><text y="1.67" class="c">bash-3.2$</text><text x="10.02" y="1.67" class="c">ls</text></symbol><symbol id="3"><text y="1.67" class="c">README.md</text><text x="24.048" y="1.67" class="c">jenkins.md</text><text x="48.096" y="1.67" class="c">standup.md</text></symbol><symbol id="4"><text y="1.67" class="c">employee-handbook.pdf</text><text x="24.048" y="1.67" class="c">nginx-ssl.md</text><text x="48.096" y="1.67" class="c">timeoff.md</text></symbol><symbol id="5"><text y="1.67" class="c">healthcare.md</text><text x="24.048" y="1.67" class="c">open-vpn.md</text><text x="48.096" y="1.67" class="c">timesheet.md</text></symbol><symbol id="6"><text y="1.67" class="c">bash-3.2$</text><text x="10.02" y="1.67" class="c">starship</text></symbol><symbol id="7"><text y="1.67" class="c">bash-3.2$</text><text x="10.02" y="1.67" class="c">starship</text><text x="19.038" y="1.67" class="c">index</text></symbol><symbol id="8"><text y="1.67" class="c">bash-3.2$</text><text x="10.02" y="1.67" class="c">starship</text><text x="19.038" y="1.67" class="c">index</text><text x="25.05" y="1.67" class="c">healthcare.md</text></symbol><symbol id="9"><text x="1.002" y="1.67" class="c">Indexing</text><text x="10.02" y="1.67" class="c">healthcare.md</text><text x="24.048" y="1.67" class="c">...</text><text x="28.056" y="1.67" class="d">⠋</text></symbol><symbol id="10"><text x="1.002" y="1.67" class="c">Indexing</text><text x="10.02" y="1.67" class="c">healthcare.md</text><text x="24.048" y="1.67" class="c">...</text><text x="28.056" y="1.67" class="d">⠙</text></symbol><symbol id="11"><text x="1.002" y="1.67" class="c">Indexing</text><text x="10.02" y="1.67" class="c">healthcare.md</text><text x="24.048" y="1.67" class="c">...</text><text x="28.056" y="1.67" class="d">⠚</text></symbol><symbol id="12"><text x="1.002" y="1.67" class="c">Indexing</text><text x="10.02" y="1.67" class="c">healthcare.md</text><text x="24.048" y="1.67" class="c">...</text><text x="28.056" y="1.67" class="d">⠒</text></symbol><symbol id="13"><text x="1.002" y="1.67" class="c">Indexing</text><text x="10.02" y="1.67" class="c">healthcare.md</text><text x="24.048" y="1.67" class="c">...</text><text x="28.056" y="1.67" class="d">⠂</text></symbol><symbol id="14"><text x="1.002" y="1.67" class="c">Indexing</text><text x="10.02" y="1.67" class="c">healthcare.md</text><text x="24.048" y="1.67" class="c">...</text><text x="28.056" y="1.67" class="d">⠲</text></symbol><symbol id="15"><text x="1.002" y="1.67" class="c">Indexing</text><text x="10.02" y="1.67" class="c">healthcare.md</text><text x="24.048" y="1.67" class="c">...</text><text x="28.056" y="1.67" class="d">⠴</text></symbol><symbol id="16"><text x="1.002" y="1.67" class="c">Indexing</text><text x="10.02" y="1.67" class="c">healthcare.md</text><text x="24.048" y="1.67" class="c">...</text><text x="28.056" y="1.67" class="d">⠦</text></symbol><symbol id="17"><text x="1.002" y="1.67" class="c">Indexing</text><text x="10.02" y="1.67" class="c">healthcare.md</text><text x="24.048" y="1.67" class="c">...</text><text x="28.056" y="1.67" class="d">⠖</text></symbol><symbol id="a"><path fill="transparent" d="M0 0h110v26H0z"/></symbol><symbol id="b"><path fill="#6f7683" d="M0 0h1.102v2.171H0z"/></symbol></defs><path class="a" d="M0 0h110v56.446H0z"/><g style="animation-duration:6.625573s;animation-iteration-count:infinite;animation-name:g;animation-timing-function:steps(1,end)"><svg width="6820"><svg><use xlink:href="#a"/><use xlink:href="#b" x="-.004"/></svg><svg x="110"><use xlink:href="#a"/><use xlink:href="#b" x="9.996"/><use xlink:href="#1"/></svg><svg x="220"><use xlink:href="#a"/><use xlink:href="#b" x="10.996"/><text y="1.67" class="c">bash-3.2$</text><text x="10.02" y="1.67" class="c">l</text></svg><svg x="330"><use xlink:href="#a"/><use xlink:href="#b" x="11.996"/><use xlink:href="#2"/></svg><svg x="440"><use xlink:href="#a"/><use xlink:href="#b" x="-.004" y="2.146"/><use xlink:href="#2"/></svg><svg x="550"><use xlink:href="#a"/><use xlink:href="#b" x="-.004" y="8.659"/><use xlink:href="#2"/><use xlink:href="#3" y="2.171"/><use xlink:href="#4" y="4.342"/><use xlink:href="#5" y="6.513"/></svg><svg x="660"><use xlink:href="#a"/><use xlink:href="#b" x="9.996" y="8.659"/><use xlink:href="#2"/><use xlink:href="#3" y="2.171"/><use xlink:href="#4" y="4.342"/><use xlink:href="#5" y="6.513"/><use xlink:href="#1" y="8.684"/></svg><svg x="770"><use xlink:href="#a"/><use xlink:href="#b" x="10.996" y="8.659"/><use xlink:href="#2"/><use xlink:href="#3" y="2.171"/><use xlink:href="#4" y="4.342"/><use xlink:href="#5" y="6.513"/><text y="10.354" class="c">bash-3.2$</text><text x="10.02" y="10.354" class="c">s</text></svg><svg x="880"><use xlink:href="#a"/><use xlink:href="#b" x="11.996" y="8.659"/><use xlink:href="#2"/><use xlink:href="#3" y="2.171"/><use xlink:href="#4" y="4.342"/><use xlink:href="#5" y="6.513"/><text y="10.354" class="c">bash-3.2$</text><text x="10.02" y="10.354" class="c">st</text></svg><svg x="990"><use xlink:href="#a"/><use xlink:href="#b" x="12.996" y="8.659"/><use xlink:href="#2"/><use xlink:href="#3" y="2.171"/><use xlink:href="#4" y="4.342"/><use xlink:href="#5" y="6.513"/><text y="10.354" class="c">bash-3.2$</text><text x="10.02" y="10.354" class="c">sta</text></svg><svg x="1100"><use xlink:href="#a"/><use xlink:href="#b" x="13.996" y="8.659"/><use xlink:href="#2"/><use xlink:href="#3" y="2.171"/><use xlink:href="#4" y="4.342"/><use xlink:href="#5" y="6.513"/><text y="10.354" class="c">bash-3.2$</text><text x="10.02" y="10.354" class="c">star</text></svg><svg x="1210"><use xlink:href="#a"/><use xlink:href="#b" x="14.996" y="8.659"/><use xlink:href="#2"/><use xlink:href="#3" y="2.171"/><use xlink:href="#4" y="4.342"/><use xlink:href="#5" y="6.513"/><text y="10.354" class="c">bash-3.2$</text><text x="10.02" y="10.354" class="c">stars</text></svg><svg x="1320"><use xlink:href="#a"/><use xlink:href="#b" x="15.996" y="8.659"/><use xlink:href="#2"/><use xlink:href="#3" y="2.171"/><use xlink:href="#4" y="4.342"/><use xlink:href="#5" y="6.513"/><text y="10.354" class="c">bash-3.2$</text><text x="10.02" y="10.354" class="c">starsh</text></svg><svg x="1430"><use xlink:href="#a"/><use xlink:href="#b" x="16.996" y="8.659"/><use xlink:href="#2"/><use xlink:href="#3" y="2.171"/><use xlink:href="#4" y="4.342"/><use xlink:href="#5" y="6.513"/><text y="10.354" class="c">bash-3.2$</text><text x="10.02" y="10.354" class="c">starshi</text></svg><svg x="1540"><use xlink:href="#a"/><use xlink:href="#b" x="17.996" y="8.659"/><use xlink:href="#2"/><use xlink:href="#3" y="2.171"/><use xlink:href="#4" y="4.342"/><use xlink:href="#5" y="6.513"/><use xlink:href="#6" y="8.684"/></svg><svg x="1650"><use xlink:href="#a"/><use xlink:href="#b" x="18.996" y="8.659"/><use xlink:href="#2"/><use xlink:href="#3" y="2.171"/><use xlink:href="#4" y="4.342"/><use xlink:href="#5" y="6.513"/><use xlink:href="#6" y="8.684"/></svg><svg x="1760"><use xlink:href="#a"/><use xlink:href="#b" x="19.996" y="8.659"/><use xlink:href="#2"/><use xlink:href="#3" y="2.171"/><use xlink:href="#4" y="4.342"/><use xlink:href="#5" y="6.513"/><text y="10.354" class="c">bash-3.2$</text><text x="10.02" y="10.354" class="c">starship</text><text x="19.038" y="10.354" class="c">i</text></svg><svg x="1870"><use xlink:href="#a"/><use xlink:href="#b" x="20.996" y="8.659"/><use xlink:href="#2"/><use xlink:href="#3" y="2.171"/><use xlink:href="#4" y="4.342"/><use xlink:href="#5" y="6.513"/><text y="10.354" class="c">bash-3.2$</text><text x="10.02" y="10.354" class="c">starship</text><text x="19.038" y="10.354" class="c">in</text></svg><svg x="1980"><use xlink:href="#a"/><use xlink:href="#b" x="21.996" y="8.659"/><use xlink:href="#2"/><use xlink:href="#3" y="2.171"/><use xlink:href="#4" y="4.342"/><use xlink:href="#5" y="6.513"/><text y="10.354" class="c">bash-3.2$</text><text x="10.02" y="10.354" class="c">starship</text><text x="19.038" y="10.354" class="c">ind</text></svg><svg x="2090"><use xlink:href="#a"/><use xlink:href="#b" x="22.996" y="8.659"/><use xlink:href="#2"/><use xlink:href="#3" y="2.171"/><use xlink:href="#4" y="4.342"/><use xlink:href="#5" y="6.513"/><text y="10.354" class="c">bash-3.2$</text><text x="10.02" y="10.354" class="c">starship</text><text x="19.038" y="10.354" class="c">inde</text></svg><svg x="2200"><use xlink:href="#a"/><use xlink:href="#b" x="23.996" y="8.659"/><use xlink:href="#2"/><use xlink:href="#3" y="2.171"/><use xlink:href="#4" y="4.342"/><use xlink:href="#5" y="6.513"/><use xlink:href="#7" y="8.684"/></svg><svg x="2310"><use xlink:href="#a"/><use xlink:href="#b" x="24.996" y="8.659"/><use xlink:href="#2"/><use xlink:href="#3" y="2.171"/><use xlink:href="#4" y="4.342"/><use xlink:href="#5" y="6.513"/><use xlink:href="#7" y="8.684"/></svg><svg x="2420"><use xlink:href="#a"/><use xlink:href="#b" x="25.996" y="8.659"/><use xlink:href="#2"/><use xlink:href="#3" y="2.171"/><use xlink:href="#4" y="4.342"/><use xlink:href="#5" y="6.513"/><text y="10.354" class="c">bash-3.2$</text><text x="10.02" y="10.354" class="c">starship</text><text x="19.038" y="10.354" class="c">index</text><text x="25.05" y="10.354" class="c">h</text></svg><svg x="2530"><use xlink:href="#a"/><use xlink:href="#b" x="26.996" y="8.659"/><use xlink:href="#2"/><use xlink:href="#3" y="2.171"/><use xlink:href="#4" y="4.342"/><use xlink:href="#5" y="6.513"/><text y="10.354" class="c">bash-3.2$</text><text x="10.02" y="10.354" class="c">starship</text><text x="19.038" y="10.354" class="c">index</text><text x="25.05" y="10.354" class="c">he</text></svg><svg x="2640"><use xlink:href="#a"/><use xlink:href="#b" x="27.996" y="8.659"/><use xlink:href="#2"/><use xlink:href="#3" y="2.171"/><use xlink:href="#4" y="4.342"/><use xlink:href="#5" y="6.513"/><text y="10.354" class="c">bash-3.2$</text><text x="10.02" y="10.354" class="c">starship</text><text x="19.038" y="10.354" class="c">index</text><text x="25.05" y="10.354" class="c">hea</text></svg><svg x="2750"><use xlink:href="#a"/><use xlink:href="#b" x="28.996" y="8.659"/><use xlink:href="#2"/><use xlink:href="#3" y="2.171"/><use xlink:href="#4" y="4.342"/><use xlink:href="#5" y="6.513"/><text y="10.354" class="c">bash-3.2$</text><text x="10.02" y="10.354" class="c">starship</text><text x="19.038" y="10.354" class="c">index</text><text x="25.05" y="10.354" class="c">heal</text></svg><svg x="2860"><use xlink:href="#a"/><use xlink:href="#b" x="38.996" y="8.659"/><use xlink:href="#2"/><use xlink:href="#3" y="2.171"/><use xlink:href="#4" y="4.342"/><use xlink:href="#5" y="6.513"/><use xlink:href="#8" y="8.684"/></svg><svg x="2970"><use xlink:href="#a"/><use xlink:href="#b" x="-.004" y="10.83"/><use xlink:href="#2"/><use xlink:href="#3" y="2.171"/><use xlink:href="#4" y="4.342"/><use xlink:href="#5" y="6.513"/><use xlink:href="#8" y="8.684"/></svg><svg x="3080"><use xlink:href="#a"/><use xlink:href="#b" x="29.996" y="10.83"/><use xlink:href="#2"/><use xlink:href="#3" y="2.171"/><use xlink:href="#4" y="4.342"/><use xlink:href="#5" y="6.513"/><use xlink:href="#8" y="8.684"/><use xlink:href="#9" y="10.855"/></svg><svg x="3190"><use xlink:href="#a"/><use xlink:href="#b" x="6.996" y="10.83"/><use xlink:href="#2"/><use xlink:href="#3" y="2.171"/><use xlink:href="#4" y="4.342"/><use xlink:href="#5" y="6.513"/><use xlink:href="#8" y="8.684"/><use xlink:href="#9" y="10.855"/></svg><svg x="3300"><use xlink:href="#a"/><use xlink:href="#b" x="29.996" y="10.83"/><use xlink:href="#2"/><use xlink:href="#3" y="2.171"/><use xlink:href="#4" y="4.342"/><use xlink:href="#5" y="6.513"/><use xlink:href="#8" y="8.684"/><use xlink:href="#10" y="10.855"/></svg><svg x="3410"><use xlink:href="#a"/><use xlink:href="#b" x="13.996" y="10.83"/><use xlink:href="#2"/><use xlink:href="#3" y="2.171"/><use xlink:href="#4" y="4.342"/><use xlink:href="#5" y="6.513"/><use xlink:href="#8" y="8.684"/><use xlink:href="#10" y="10.855"/></svg><svg x="3520"><use xlink:href="#a"/><use xlink:href="#b" x="-.004" y="10.83"/><use xlink:href="#2"/><use xlink:href="#3" y="2.171"/><use xlink:href="#4" y="4.342"/><use xlink:href="#5" y="6.513"/><use xlink:href="#8" y="8.684"/></svg><svg x="3630"><use xlink:href="#a"/><use xlink:href="#b" x="29.996" y="10.83"/><use xlink:href="#2"/><use xlink:href="#3" y="2.171"/><use xlink:href="#4" y="4.342"/><use xlink:href="#5" y="6.513"/><use xlink:href="#8" y="8.684"/><use xlink:href="#11" y="10.855"/></svg><svg x="3740"><use xlink:href="#a"/><use xlink:href="#b" x="12.996" y="10.83"/><use xlink:href="#2"/><use xlink:href="#3" y="2.171"/><use xlink:href="#4" y="4.342"/><use xlink:href="#5" y="6.513"/><use xlink:href="#8" y="8.684"/><use xlink:href="#11" y="10.855"/></svg><svg x="3850"><use xlink:href="#a"/><use xlink:href="#b" x="-.004" y="10.83"/><use xlink:href="#2"/><use xlink:href="#3" y="2.171"/><use xlink:href="#4" y="4.342"/><use xlink:href="#5" y="6.513"/><use xlink:href="#8" y="8.684"/></svg><svg x="3960"><use xlink:href="#a"/><use xlink:href="#b" x="29.996" y="10.83"/><use xlink:href="#2"/><use xlink:href="#3" y="2.171"/><use xlink:href="#4" y="4.342"/><use xlink:href="#5" y="6.513"/><use xlink:href="#8" y="8.684"/><use xlink:href="#12" y="10.855"/></svg><svg x="4070"><use xlink:href="#a"/><use xlink:href="#b" x="7.996" y="10.83"/><use xlink:href="#2"/><use xlink:href="#3" y="2.171"/><use xlink:href="#4" y="4.342"/><use xlink:href="#5" y="6.513"/><use xlink:href="#8" y="8.684"/><use xlink:href="#12" y="10.855"/></svg><svg x="4180"><use xlink:href="#a"/><use xlink:href="#b" x="29.996" y="10.83"/><use xlink:href="#2"/><use xlink:href="#3" y="2.171"/><use xlink:href="#4" y="4.342"/><use xlink:href="#5" y="6.513"/><use xlink:href="#8" y="8.684"/><use xlink:href="#13" y="10.855"/></svg><svg x="4290"><use xlink:href="#a"/><use xlink:href="#b" x="13.996" y="10.83"/><use xlink:href="#2"/><use xlink:href="#3" y="2.171"/><use xlink:href="#4" y="4.342"/><use xlink:href="#5" y="6.513"/><use xlink:href="#8" y="8.684"/><use xlink:href="#13" y="10.855"/></svg><svg x="4400"><use xlink:href="#a"/><use xlink:href="#b" x="-.004" y="10.83"/><use xlink:href="#2"/><use xlink:href="#3" y="2.171"/><use xlink:href="#4" y="4.342"/><use xlink:href="#5" y="6.513"/><use xlink:href="#8" y="8.684"/></svg><svg x="4510"><use xlink:href="#a"/><use xlink:href="#b" x="29.996" y="10.83"/><use xlink:href="#2"/><use xlink:href="#3" y="2.171"/><use xlink:href="#4" y="4.342"/><use xlink:href="#5" y="6.513"/><use xlink:href="#8" y="8.684"/><use xlink:href="#13" y="10.855"/></svg><svg x="4620"><use xlink:href="#a"/><use xlink:href="#b" x="4.996" y="10.83"/><use xlink:href="#2"/><use xlink:href="#3" y="2.171"/><use xlink:href="#4" y="4.342"/><use xlink:href="#5" y="6.513"/><use xlink:href="#8" y="8.684"/><text y="12.525" class="c">xing</text><text x="10.02" y="12.525" class="c">healthcare.md</text><text x="24.048" y="12.525" class="c">...</text><text x="28.056" y="12.525" class="d">⠂</text></svg><svg x="4730"><use xlink:href="#a"/><use xlink:href="#b" x="29.996" y="10.83"/><use xlink:href="#2"/><use xlink:href="#3" y="2.171"/><use xlink:href="#4" y="4.342"/><use xlink:href="#5" y="6.513"/><use xlink:href="#8" y="8.684"/><use xlink:href="#12" y="10.855"/></svg><svg x="4840"><use xlink:href="#a"/><use xlink:href="#b" x="7.996" y="10.83"/><use xlink:href="#2"/><use xlink:href="#3" y="2.171"/><use xlink:href="#4" y="4.342"/><use xlink:href="#5" y="6.513"/><use xlink:href="#8" y="8.684"/><use xlink:href="#12" y="10.855"/></svg><svg x="4950"><use xlink:href="#a"/><use xlink:href="#b" x="-.004" y="10.83"/><use xlink:href="#2"/><use xlink:href="#3" y="2.171"/><use xlink:href="#4" y="4.342"/><use xlink:href="#5" y="6.513"/><use xlink:href="#8" y="8.684"/></svg><svg x="5060"><use xlink:href="#a"/><use xlink:href="#b" x="29.996" y="10.83"/><use xlink:href="#2"/><use xlink:href="#3" y="2.171"/><use xlink:href="#4" y="4.342"/><use xlink:href="#5" y="6.513"/><use xlink:href="#8" y="8.684"/><use xlink:href="#14" y="10.855"/></svg><svg x="5170"><use xlink:href="#a"/><use xlink:href="#b" x="10.996" y="10.83"/><use xlink:href="#2"/><use xlink:href="#3" y="2.171"/><use xlink:href="#4" y="4.342"/><use xlink:href="#5" y="6.513"/><use xlink:href="#8" y="8.684"/><use xlink:href="#14" y="10.855"/></svg><svg x="5280"><use xlink:href="#a"/><use xlink:href="#b" x="-.004" y="10.83"/><use xlink:href="#2"/><use xlink:href="#3" y="2.171"/><use xlink:href="#4" y="4.342"/><use xlink:href="#5" y="6.513"/><use xlink:href="#8" y="8.684"/></svg><svg x="5390"><use xlink:href="#a"/><use xlink:href="#b" x="29.996" y="10.83"/><use xlink:href="#2"/><use xlink:href="#3" y="2.171"/><use xlink:href="#4" y="4.342"/><use xlink:href="#5" y="6.513"/><use xlink:href="#8" y="8.684"/><use xlink:href="#15" y="10.855"/></svg><svg x="5500"><use xlink:href="#a"/><use xlink:href="#b" x="1.996" y="10.83"/><use xlink:href="#2"/><use xlink:href="#3" y="2.171"/><use xlink:href="#4" y="4.342"/><use xlink:href="#5" y="6.513"/><use xlink:href="#8" y="8.684"/><use xlink:href="#15" y="10.855"/></svg><svg x="5610"><use xlink:href="#a"/><use xlink:href="#b" x="-.004" y="10.83"/><use xlink:href="#2"/><use xlink:href="#3" y="2.171"/><use xlink:href="#4" y="4.342"/><use xlink:href="#5" y="6.513"/><use xlink:href="#8" y="8.684"/></svg><svg x="5720"><use xlink:href="#a"/><use xlink:href="#b" x="29.996" y="10.83"/><use xlink:href="#2"/><use xlink:href="#3" y="2.171"/><use xlink:href="#4" y="4.342"/><use xlink:href="#5" y="6.513"/><use xlink:href="#8" y="8.684"/><use xlink:href="#16" y="10.855"/></svg><svg x="5830"><use xlink:href="#a"/><use xlink:href="#b" x="9.996" y="10.83"/><use xlink:href="#2"/><use xlink:href="#3" y="2.171"/><use xlink:href="#4" y="4.342"/><use xlink:href="#5" y="6.513"/><use xlink:href="#8" y="8.684"/><use xlink:href="#16" y="10.855"/></svg><svg x="5940"><use xlink:href="#a"/><use xlink:href="#b" x="29.996" y="10.83"/><use xlink:href="#2"/><use xlink:href="#3" y="2.171"/><use xlink:href="#4" y="4.342"/><use xlink:href="#5" y="6.513"/><use xlink:href="#8" y="8.684"/><use xlink:href="#17" y="10.855"/></svg><svg x="6050"><use xlink:href="#a"/><use xlink:href="#b" x="12.996" y="10.83"/><use xlink:href="#2"/><use xlink:href="#3" y="2.171"/><use xlink:href="#4" y="4.342"/><use xlink:href="#5" y="6.513"/><use xlink:href="#8" y="8.684"/><use xlink:href="#17" y="10.855"/></svg><svg x="6160"><use xlink:href="#a"/><use xlink:href="#b" x="-.004" y="10.83"/><use xlink:href="#2"/><use xlink:href="#3" y="2.171"/><use xlink:href="#4" y="4.342"/><use xlink:href="#5" y="6.513"/><use xlink:href="#8" y="8.684"/></svg><svg x="6270"><use xlink:href="#a"/><use xlink:href="#b" x="29.996" y="10.83"/><use xlink:href="#2"/><use xlink:href="#3" y="2.171"/><use xlink:href="#4" y="4.342"/><use xlink:href="#5" y="6.513"/><use xlink:href="#8" y="8.684"/><use xlink:href="#12" y="10.855"/></svg><svg x="6380"><use xlink:href="#a"/><use xlink:href="#b" x="9.996" y="10.83"/><use xlink:href="#2"/><use xlink:href="#3" y="2.171"/><use xlink:href="#4" y="4.342"/><use xlink:href="#5" y="6.513"/><use xlink:href="#8" y="8.684"/><use xlink:href="#12" y="10.855"/></svg><svg x="6490"><use xlink:href="#a"/><use xlink:href="#b" x="-.004" y="10.83"/><use xlink:href="#2"/><use xlink:href="#3" y="2.171"/><use xlink:href="#4" y="4.342"/><use xlink:href="#5" y="6.513"/><use xlink:href="#8" y="8.684"/></svg><svg x="6600"><use xlink:href="#a"/><use xlink:href="#b" x="9.996" y="10.83"/><use xlink:href="#2"/><use xlink:href="#3" y="2.171"/><use xlink:href="#4" y="4.342"/><use xlink:href="#5" y="6.513"/><use xlink:href="#8" y="8.684"/><use xlink:href="#1" y="10.855"/></svg><svg x="6710"><use xlink:href="#a"/><use xlink:href="#b" x="-.004" y="13.001"/><use xlink:href="#2"/><use xlink:href="#3" y="2.171"/><use xlink:href="#4" y="4.342"/><use xlink:href="#5" y="6.513"/><use xlink:href="#8" y="8.684"/><text y="12.525" class="c">bash-3.2$</text><text x="10.02" y="12.525" class="c">exit</text></svg></svg></g></g></svg></svg>